<svg id="Layer_1" data-name="Layer 1" xmlns="http://www.w3.org/2000/svg" xmlns:xlink="http://www.w3.org/1999/xlink" viewBox="0 0 522.93 400.09"><defs><style>.cls-1,.cls-16,.cls-2{fill:none;}.cls-2{clip-path:url(#clip-path);}.cls-3{fill:#d8d8d8;}.cls-4{fill:#24425b;}.cls-10,.cls-13,.cls-18,.cls-5{fill:#010101;}.cls-5,.cls-9{opacity:0.1;}.cls-11,.cls-13,.cls-18,.cls-19,.cls-5{isolation:isolate;}.cls-6{fill:#fbb03b;}.cls-7{fill:#0e4a73;}.cls-8{fill:#fb8c00;}.cls-11,.cls-12{fill:#fbc02d;}.cls-11{opacity:0.15;}.cls-13{opacity:0.6;}.cls-14{fill:#fff;}.cls-15{fill:#dd6901;}.cls-16{stroke:#000;stroke-miterlimit:10;stroke-width:2px;}.cls-17{clip-path:url(#clip-path-2);}.cls-18{opacity:0.16;}.cls-19{fill:#3949ab;opacity:0.05;}.cls-20{fill:#6d4716;}.cls-21{fill:#99671d;}.cls-22{fill:#444;}.cls-23{fill:#ffc866;}</style><clipPath id="clip-path"><polygon class="cls-1" points="68.28 64.68 71.48 64.68 68.28 67.88 68.28 64.68"/></clipPath><clipPath id="clip-path-2" transform="translate(-22.07 -110.88)"><polygon class="cls-2" points="61.89 58.29 58.7 58.29 61.89 55.1 61.89 58.29"/></clipPath></defs><title>coinmiq1</title><path class="cls-3" d="M408.06,350.22s17.69,20.27,38.68,10.43c0,0,16.61,21.48,39.59,18.54l25.91,15.26,7.27-6.28L534,307.64l9.8-13s4.42-20.14-3.61-34.49l-30-4.2s-12,10.64-10.17,17.28,5.12,25.35,7.3,27.7-20.59,39.54-20.59,39.54-6-43.49-47.74-30.4C438.74,310.27,384.33,316.11,408.06,350.22Z" transform="translate(-22.07 -110.88)"/><path class="cls-4" d="M498.82,317.75c3.51-6,5.3-10.12,7.49-14.68,11.47,10.59,19.07,10.08,28.2,6.36l-3.15,18.82C517.59,333.17,509,329,498.82,317.75Z" transform="translate(-22.07 -110.88)"/><path class="cls-5" d="M408.06,350.22c-4.7-21.82,27.19-41,37.22-19.77,8.16-4.56,21-9.83,34.15,13.45,8,6.37,14,12.23,14,12.23l20.24-51.67c-7.27-18.12-9.26-34.93-3.49-48.49,0,0-12,10.64-10.17,17.28s5.59,25.68,7.46,28.29c1,3.35-20.78,39.28-20.78,39.28S481.1,297.1,439,310.08C438.68,310.72,384.51,315.81,408.06,350.22Z" transform="translate(-22.07 -110.88)"/><rect class="cls-6" x="114.3" y="176.09" width="16.74" height="235.2" transform="translate(-41.4 -102.04) rotate(-3.83)"/><path class="cls-7" d="M159.54,152.85c-27.65-3.6-46.4-1.62-46.4-1.62s-18.84.53-45.77,7.78-45.3,17.55-45.3,17.55l1.69,5s26.19-10.45,48.05-14.93c12.06-2.47,22.41-3.75,24-2.4s6.41,13,6.41,13l12.65-.85,12.65-.85s3.27-12.2,4.62-13.74,11.78-1.65,24.06-.81c22.27,1.53,49.61,8.4,49.61,8.4l1-5.14S187.2,156.44,159.54,152.85Z" transform="translate(-22.07 -110.88)"/><circle class="cls-8" cx="294.76" cy="198.28" r="127.76"/><g class="cls-9"><path class="cls-10" d="M442.07,309.16A126,126,0,0,1,227.65,399c33.09,7.44,115,9.58,159.13-45.61,33.19-39.83,26.54-106.14,13.29-138.18A125.69,125.69,0,0,1,442.07,309.16Z" transform="translate(-22.07 -110.88)"/></g><path class="cls-4" d="M457,193.54c-16,3.83-22.9,15.22-43.66,15.86a14.55,14.55,0,0,1-9.26-5.43l-3.19-5.43s-5.53-46.84-9.36-54.51c-9.9-20.44-12.78-32.9-102.85-32.9a88.84,88.84,0,0,0-24.28,1.6c-28.11,3.19-52.7,14.05-43.44,43.44,2.87,18.53,6,34,12.43,51.59a20.43,20.43,0,0,1-8,7.67c-1.92.64-3.83,1.28-5.43,1.92-9.58,1.92-23.93-.49-41.18-5-35.45-8.94-34.18,20.44-26.83,30.34s23.32,14.37,49.51,6.71c35.77-10.86,87.84-24,131-26.51,47.91-1.92,80.49,3.19,102.85,10.86,20.76,7,52.06-5.75,51.43-18.21S473,189.7,457,193.54Z" transform="translate(-22.07 -110.88)"/><path class="cls-11" d="M246.88,236.66a385.46,385.46,0,0,1,85.28-15.33c51.43-2.56,107.64,12.46,107.64,12.46a34,34,0,0,0,21.08.32s-77-30.34-130.64-26.19c-26.83,2.24-79.53,16-79.53,16S187.47,244.32,152,244C152.65,244.64,162.23,268.28,246.88,236.66Z" transform="translate(-22.07 -110.88)"/><path class="cls-12" d="M225.48,177.89s106.36-42.16,170.88-12.78l3.19,23.64s-36.73-25.55-168.33,10.86Z" transform="translate(-22.07 -110.88)"/><path class="cls-11" d="M328,114.64S201.84,95.16,221,156.17a273.7,273.7,0,0,0,16.93,62s40.57-6.71,58.13-13.42L280.73,153C280.73,153.29,268.92,117.52,328,114.64Z" transform="translate(-22.07 -110.88)"/><path id="use36" class="cls-13" d="M395.72,376.56a47.27,47.27,0,0,1-35.45,16H359a46.77,46.77,0,0,1-35.45-16C314,366,307.88,349.09,307.88,341.42c0-6.71,11.18,1.92,39.29,4.15,3.83.32,7.67.32,11.82.32h1.6c25.23,0,40.88-8,43.76-9.58s7.67-2.24,7.67,5.11S405.3,366,395.72,376.56Z" transform="translate(-22.07 -110.88)"/><ellipse id="ellipse6" class="cls-14" cx="325.77" cy="295.75" rx="19.8" ry="27.47" transform="translate(-37.82 -92.54) rotate(-3.15)"/><ellipse id="ellipse8" class="cls-12" cx="304.03" cy="186.46" rx="11.82" ry="14.05"/><circle id="circle10" class="cls-14" cx="296.36" cy="178.8" r="6.39"/><path id="path12" class="cls-12" d="M309.48,268.6c11.18-13.1,22.36-12.78,33.22,0C342.7,268.6,327.37,237.94,309.48,268.6Z" transform="translate(-22.07 -110.88)"/><ellipse id="ellipse14" class="cls-14" cx="399.25" cy="296.07" rx="19.8" ry="27.47" transform="matrix(1, -0.05, 0.05, 1, -37.73, -88.51)"/><ellipse id="ellipse16" class="cls-12" cx="377.49" cy="186.46" rx="11.82" ry="14.05"/><circle id="circle18" class="cls-14" cx="369.82" cy="178.8" r="6.39"/><path id="path20" class="cls-12" d="M382.95,268.6c11.18-13.1,22.36-12.78,33.22,0C416.16,268.6,400.83,237.94,382.95,268.6Z" transform="translate(-22.07 -110.88)"/><path id="path22" class="cls-15" d="M279.46,267.64h-5.75v12.78h5.75c3.19,1,5.75,3.83,5.75,7V306s-1,25.87,37.69,25.23c0,0-27.47.64-31.94-26.51V287.44a6.62,6.62,0,0,0-4.15-5.75l-6.07-1.28Z" transform="translate(-22.07 -110.88)"/><path id="path24" class="cls-16" d="M279.46,267.64v12.78l6.39.64a7,7,0,0,1,4.47,5.75v17.25s2.87,28.75,34.5,27.15,32.58-31.62,32.58-31.62,0-20.76,7-20.76,7.35,20.76,7.35,20.76,1.28,31.62,32.9,31.62,32.9-27.15,32.9-27.15V285.53a4.23,4.23,0,0,1,4.15-4.15h6.07V268.6l-69.63-.32a13.25,13.25,0,0,0-6.39,3.83l-6.71,6.39-7-6.71a10.84,10.84,0,0,0-8.62-3.19Z" transform="translate(-22.07 -110.88)"/><path id="path70-2" class="cls-14" d="M349.09,361.87l-.64-13.73a97.68,97.68,0,0,0,31.94-1.28l.64,13.42c.32,1.6-.64,2.24-2.24,2.87l-12.78.64-1.28-10.86-1,10.54-12.46.64C349.73,363.78,349.09,363.14,349.09,361.87Z" transform="translate(-22.07 -110.88)"/><path class="cls-3" d="M175.23,286.88a28.19,28.19,0,0,1,3.83,24.59l-1.28,6.39,13.73.32c9.58,2.87,10.22,25.55,1.92,32.58a52.87,52.87,0,0,0-9.58,7C181,361.62,167.25,374.4,157,377.91c-1.92.64-5.75,2.56-10.54,4.47-19.16,7.67-55.58,18.85-61.65-20.76l1-21.08c.64-10.54-4.79-18.21,2.56-38.33s28.11-23.32,43.44-19.16c0,0,2.56,1.6,7.67-5.43S166,267.07,175.23,286.88Z" transform="translate(-22.07 -110.88)"/><path class="cls-18" d="M193.76,351.4s-26.51,23-36.41,26.83c-8.62,3.19-51.74,25.87-67.08-1.6a82.15,82.15,0,0,1-4.79-15c2.87,7,18.21,13.42,33.86,13.73,21.08,1,35.77-13.73,48.87-11.5A126.13,126.13,0,0,1,193.76,351.4Z" transform="translate(-22.07 -110.88)"/><path class="cls-14" d="M150.64,380.78c-17.89,7.67-58.77,23-65.16-19.48l1.28-21.4c.64-10.54-4.79-18.21,2.56-38.33s7.67-20.44,43.44-19.16c32.9,1,16.93,52.06,23,86.56C155.75,372.48,153.51,379.51,150.64,380.78Z" transform="translate(-22.07 -110.88)"/><path class="cls-19" d="M157.35,377.91c10.22-2.24-64.52,32.9-71.87-16.61l1-21.08c.64-10.54-4.79-18.21,2.56-38.33s28.11-23.32,43.44-19.16C85.16,285.6,105.6,384.62,157.35,377.91Z" transform="translate(-22.07 -110.88)"/><path class="cls-20" d="M274.68,452.56s8.3,16.61,16.61,22.68a128.75,128.75,0,0,1,10.22,8.3V497C301.51,498.24,270.21,488,274.68,452.56Z" transform="translate(-22.07 -110.88)"/><path class="cls-14" d="M272.45,452.56s16.61-4.15,26.83,6.39,10.22,24.91,4.15,24.91S297.36,485.78,272.45,452.56Z" transform="translate(-22.07 -110.88)"/><path class="cls-21" d="M193.55,405s14.37-24.91,58.13-2.24,8.3,70.59,47.59,93.59c0,0-11,11.29-25.55-18.21C259.61,449.46,260,402.73,193.55,405Z" transform="translate(-22.07 -110.88)"/><path class="cls-22" d="M299.28,496.32s-18.53,8.3-31.3-33.22-27.15-66.44-62.29-64.52a20.62,20.62,0,0,0-13.42,5.11c-16.93,15.33-3.83,59.73,13.42,73.78,20.76,16.61,66.44,33.22,85.28,26.83S299.28,496.32,299.28,496.32Z" transform="translate(-22.07 -110.88)"/><path class="cls-23" d="M302.15,436.27l-2.87,22.68c-5.75-4.15-10.86-7-15.33-7l1.92-18.85A97.85,97.85,0,0,0,302.15,436.27Z" transform="translate(-22.07 -110.88)"/><path class="cls-8" d="M197.7,413.27h35.14a1.6,1.6,0,1,1,0,3.19H197.7a1.6,1.6,0,0,1,0-3.19Zm-3.19,9.58h44.72a1.6,1.6,0,0,1,0,3.19H194.51a1.6,1.6,0,0,1,0-3.19Zm0,9.58h54.3a1.6,1.6,0,0,1,0,3.19h-54.3a1.6,1.6,0,0,1,0-3.19ZM197.7,442H252a1.6,1.6,0,1,1,0,3.19H197.7a1.6,1.6,0,0,1,0-3.19Zm3.19,9.58h54.3a1.6,1.6,0,1,1,0,3.19H200.9a1.6,1.6,0,0,1,0-3.19Zm6.39,9.58h54.3a1.6,1.6,0,0,1,0,3.19h-54.3a1.6,1.6,0,1,1,0-3.19Zm6.39,9.58h47.91a1.6,1.6,0,0,1,0,3.19H213.67a1.6,1.6,0,0,1,0-3.19Zm12.78,9.58H268a1.6,1.6,0,0,1,0,3.19H226.45a1.6,1.6,0,1,1,0-3.19Zm16,9.58h28.75a1.6,1.6,0,1,1,0,3.19H242.42a1.6,1.6,0,1,1,0-3.19Z" transform="translate(-22.07 -110.88)"/><path class="cls-20" d="M358.47,455s-8.94,17.57-17.57,24c-3.83,2.56-7.35,5.75-10.86,8.62v14.05C330,502.92,362.63,492.06,358.47,455Z" transform="translate(-22.07 -110.88)"/><path class="cls-14" d="M360.39,455s-17.25-4.47-28.43,6.39-10.86,26.19-4.47,26.19S334.52,489.83,360.39,455Z" transform="translate(-22.07 -110.88)"/><path class="cls-21" d="M443.12,404.86s-15.33-26.19-61-2.24-8.62,74.1-50.15,98.06c0,0,10.71,13.69,26.92-18.76C373.84,452,373.49,402.95,443.12,404.86Z" transform="translate(-22.07 -110.88)"/><path class="cls-22" d="M332.28,500.69s19.48,8.62,32.58-34.82,28.43-69.63,65.16-67.4a20.94,20.94,0,0,1,14.05,5.43c17.89,16,4.15,62.6-14.05,77.3-21.72,17.25-69.63,34.82-89.12,28.43s-8.62-8.94-8.62-8.94Z" transform="translate(-22.07 -110.88)"/><path class="cls-23" d="M329.09,438.08l3.19,23.64c6.07-4.47,11.5-7.35,16-7.35l-1.92-19.8A165.1,165.1,0,0,1,329.09,438.08Z" transform="translate(-22.07 -110.88)"/><path class="cls-8" d="M439,417H401.91a1.51,1.51,0,0,1-1.6-1.6v-.32a1.51,1.51,0,0,1,1.6-1.6H439a1.51,1.51,0,0,1,1.6,1.6v.32A1.51,1.51,0,0,1,439,417Zm3.51,10.22h-47a1.51,1.51,0,0,1-1.6-1.6v-.32a1.51,1.51,0,0,1,1.6-1.6h47a1.51,1.51,0,0,1,1.6,1.6v.32A1.71,1.71,0,0,1,442.48,427.22Zm0,9.9H385.3a1.51,1.51,0,0,1-1.6-1.6v-.32a1.51,1.51,0,0,1,1.6-1.6h57.17a1.51,1.51,0,0,1,1.6,1.6v.32A1.71,1.71,0,0,1,442.48,437.13ZM439,447.35H381.79a1.51,1.51,0,0,1-1.6-1.6v-.32a1.51,1.51,0,0,1,1.6-1.6H439a1.51,1.51,0,0,1,1.6,1.6v.32A1.71,1.71,0,0,1,439,447.35Zm-3.51,9.9H378.28a1.51,1.51,0,0,1-1.6-1.6v-.32a1.51,1.51,0,0,1,1.6-1.6h57.17a1.51,1.51,0,0,1,1.6,1.6v.32A1.51,1.51,0,0,1,435.45,457.25Zm-6.39,10.22H371.89a1.51,1.51,0,0,1-1.6-1.6v-.32a1.51,1.51,0,0,1,1.6-1.6h57.17a1.51,1.51,0,0,1,1.6,1.6v.32A2.05,2.05,0,0,1,429.06,467.47Zm-6.71,9.9H371.89a1.6,1.6,0,1,1,0-3.19h50.47a1.51,1.51,0,0,1,1.6,1.6v.32C424,476.73,423,477.37,422.36,477.37Zm-13.42,10.22H365.18a1.51,1.51,0,0,1-1.6-1.6v-.32a1.51,1.51,0,0,1,1.6-1.6h43.76a1.51,1.51,0,0,1,1.6,1.6V486A2.05,2.05,0,0,1,408.94,487.59ZM392,497.49H361.67a1.51,1.51,0,0,1-1.6-1.6v-.32a1.51,1.51,0,0,1,1.6-1.6H392a1.51,1.51,0,0,1,1.6,1.6v.32A1.51,1.51,0,0,1,392,497.49Z" transform="translate(-22.07 -110.88)"/></svg>